<svg width="76" height="56" viewBox="0 0 76 56" fill="none" xmlns="http://www.w3.org/2000/svg">
<path d="M41.4545 14C41.4545 17.713 39.9987 21.274 37.4073 23.8995C34.8159 26.525 31.3012 28 27.6364 28C23.9716 28 20.4568 26.525 17.8654 23.8995C15.274 21.274 13.8182 17.713 13.8182 14C13.8182 10.287 15.274 6.72601 17.8654 4.1005C20.4568 1.475 23.9716 0 27.6364 0C31.3012 0 34.8159 1.475 37.4073 4.1005C39.9987 6.72601 41.4545 10.287 41.4545 14ZM55.2727 49V56H0V49C0 41.265 12.3673 35 27.6364 35C42.9055 35 55.2727 41.265 55.2727 49ZM67.3636 36.75V42H62.1818V36.75H67.3636ZM60.4545 19.25H55.2727V17.5C55.2727 14.7152 56.3646 12.0445 58.3082 10.0754C60.2517 8.10625 62.8878 7 65.6364 7C68.385 7 71.021 8.10625 72.9646 10.0754C74.9081 12.0445 76 14.7152 76 17.5C76 20.895 74.2727 24.08 71.5436 25.935L70.5073 26.6C68.5382 28 67.3636 30.135 67.3636 32.55V33.25H62.1818V32.55C62.1818 28.385 64.2545 24.5 67.6745 22.225L68.6764 21.56C70.0236 20.65 70.8182 19.145 70.8182 17.5C70.8182 16.1076 70.2722 14.7723 69.3005 13.7877C68.3287 12.8031 67.0107 12.25 65.6364 12.25C64.2621 12.25 62.944 12.8031 61.9723 13.7877C61.0005 14.7723 60.4545 16.1076 60.4545 17.5V19.25Z" fill="url(#paint0_linear_186_56)"/>
<defs>
<linearGradient id="paint0_linear_186_56" x1="38" y1="0" x2="38" y2="56" gradientUnits="userSpaceOnUse">
<stop stop-color="#7E89EB"/>
<stop offset="1" stop-color="#323C92"/>
</linearGradient>
</defs>
</svg>
