<svg width="1340" height="80" viewBox="0 0 1340 80" fill="none" xmlns="http://www.w3.org/2000/svg">
<rect width="1340" height="80" rx="40" fill="#C8DFF6"/>
<path d="M137.303 47H134.49L139.611 32.4545H142.864L147.991 47H145.179L141.294 35.4375H141.18L137.303 47ZM137.395 41.2969H145.065V43.4134H137.395V41.2969ZM149.794 47V36.0909H152.365V40.4943H153.302L156.583 36.0909H159.68L155.639 41.446L159.723 47H156.612L153.622 42.8878H152.365V47H149.794ZM160.584 38.2003V36.0909H170.129V38.2003H166.599V47H164.114V38.2003H160.584ZM174.655 43.5199L179.023 36.0909H181.665V47H179.179V39.5639L174.826 47H172.176V36.0909H174.655V43.5199ZM184.305 47V36.0909H188.886C190.179 36.0909 191.199 36.349 191.947 36.8651C192.7 37.3812 193.077 38.1009 193.077 39.0241C193.077 39.6349 192.864 40.1345 192.438 40.5227C192.016 40.9062 191.441 41.1643 190.712 41.2969C191.285 41.3442 191.786 41.4886 192.217 41.7301C192.653 41.9716 192.994 42.2888 193.24 42.6818C193.486 43.0748 193.609 43.527 193.609 44.0384C193.609 44.6397 193.451 45.1629 193.134 45.608C192.821 46.0483 192.364 46.3916 191.763 46.6378C191.166 46.8793 190.442 47 189.589 47H184.305ZM186.713 44.9759H189.589C190.063 44.9759 190.435 44.8646 190.705 44.642C190.974 44.4148 191.109 44.107 191.109 43.7188C191.109 43.2689 190.974 42.9162 190.705 42.6605C190.435 42.4001 190.063 42.2699 189.589 42.2699H186.713V44.9759ZM186.713 40.608H188.936C189.286 40.608 189.587 40.5582 189.838 40.4588C190.089 40.3546 190.281 40.2102 190.413 40.0256C190.546 39.8362 190.612 39.6113 190.612 39.3509C190.612 38.9768 190.458 38.6832 190.151 38.4702C189.848 38.2571 189.426 38.1506 188.886 38.1506H186.713V40.608ZM203.224 40.4801V42.5895H197.414V40.4801H203.224ZM198.21 36.0909V47H195.731V36.0909H198.21ZM204.907 36.0909V47H202.436V36.0909H204.907ZM212.338 47.2131C211.244 47.2131 210.3 46.9858 209.504 46.5312C208.714 46.072 208.105 45.4233 207.679 44.5852C207.253 43.7424 207.04 42.7505 207.04 41.6094C207.04 40.4872 207.253 39.5024 207.679 38.6548C208.11 37.8026 208.711 37.1397 209.483 36.6662C210.255 36.188 211.161 35.9489 212.203 35.9489C212.875 35.9489 213.51 36.0578 214.107 36.2756C214.708 36.4886 215.238 36.8201 215.697 37.2699C216.161 37.7197 216.526 38.2926 216.791 38.9886C217.056 39.6799 217.189 40.5038 217.189 41.4602V42.2486H208.247V40.5156H214.724C214.72 40.0232 214.613 39.5852 214.405 39.2017C214.196 38.8134 213.905 38.508 213.531 38.2855C213.162 38.063 212.731 37.9517 212.239 37.9517C211.713 37.9517 211.251 38.0795 210.854 38.3352C210.456 38.5862 210.146 38.9176 209.923 39.3295C209.705 39.7367 209.594 40.1842 209.589 40.6719V42.1847C209.589 42.8191 209.705 43.3636 209.938 43.8182C210.17 44.268 210.494 44.6136 210.911 44.8551C211.327 45.0919 211.815 45.2102 212.374 45.2102C212.748 45.2102 213.086 45.1581 213.389 45.054C213.692 44.9451 213.955 44.7865 214.178 44.5781C214.4 44.3698 214.568 44.1117 214.682 43.804L217.082 44.0739C216.931 44.7083 216.642 45.2623 216.216 45.7358C215.795 46.2045 215.255 46.5691 214.597 46.8295C213.938 47.0852 213.186 47.2131 212.338 47.2131ZM224.325 51.0909V36.0909H226.853V37.8949H227.002C227.135 37.6297 227.322 37.348 227.564 37.0497C227.805 36.7467 228.132 36.4886 228.544 36.2756C228.956 36.0578 229.481 35.9489 230.12 35.9489C230.963 35.9489 231.723 36.1643 232.4 36.5952C233.082 37.0213 233.622 37.6534 234.02 38.4915C234.422 39.3248 234.623 40.3475 234.623 41.5597C234.623 42.7576 234.427 43.7756 234.034 44.6136C233.641 45.4517 233.106 46.0909 232.429 46.5312C231.752 46.9716 230.984 47.1918 230.127 47.1918C229.502 47.1918 228.984 47.0876 228.572 46.8793C228.16 46.6709 227.829 46.42 227.578 46.1264C227.332 45.8281 227.14 45.5464 227.002 45.2812H226.896V51.0909H224.325ZM226.846 41.5455C226.846 42.2509 226.946 42.8688 227.145 43.3991C227.348 43.9295 227.639 44.3437 228.018 44.642C228.402 44.9356 228.866 45.0824 229.41 45.0824C229.978 45.0824 230.454 44.9309 230.838 44.6278C231.221 44.3201 231.51 43.901 231.704 43.3707C231.903 42.8357 232.002 42.2273 232.002 41.5455C232.002 40.8684 231.905 40.267 231.711 39.7415C231.517 39.2159 231.228 38.804 230.845 38.5057C230.461 38.2074 229.983 38.0582 229.41 38.0582C228.861 38.0582 228.395 38.2027 228.011 38.4915C227.627 38.7803 227.336 39.1851 227.137 39.706C226.943 40.2268 226.846 40.84 226.846 41.5455ZM241.583 47.2131C240.518 47.2131 239.595 46.9787 238.814 46.5099C238.032 46.0412 237.426 45.3854 236.995 44.5426C236.569 43.6998 236.356 42.715 236.356 41.5881C236.356 40.4612 236.569 39.474 236.995 38.6264C237.426 37.7789 238.032 37.1207 238.814 36.652C239.595 36.1832 240.518 35.9489 241.583 35.9489C242.649 35.9489 243.572 36.1832 244.353 36.652C245.135 37.1207 245.738 37.7789 246.164 38.6264C246.595 39.474 246.811 40.4612 246.811 41.5881C246.811 42.715 246.595 43.6998 246.164 44.5426C245.738 45.3854 245.135 46.0412 244.353 46.5099C243.572 46.9787 242.649 47.2131 241.583 47.2131ZM241.598 45.1534C242.175 45.1534 242.658 44.9948 243.047 44.6776C243.435 44.3556 243.724 43.9247 243.913 43.3849C244.107 42.8452 244.204 42.2438 244.204 41.581C244.204 40.9134 244.107 40.3097 243.913 39.7699C243.724 39.2254 243.435 38.7921 243.047 38.4702C242.658 38.1482 242.175 37.9872 241.598 37.9872C241.006 37.9872 240.513 38.1482 240.12 38.4702C239.732 38.7921 239.441 39.2254 239.247 39.7699C239.057 40.3097 238.963 40.9134 238.963 41.581C238.963 42.2438 239.057 42.8452 239.247 43.3849C239.441 43.9247 239.732 44.3556 240.12 44.6776C240.513 44.9948 241.006 45.1534 241.598 45.1534ZM248.389 44.0099H250.939C250.963 44.4171 251.145 44.732 251.486 44.9545C251.827 45.1771 252.269 45.2884 252.814 45.2884C253.368 45.2884 253.834 45.1676 254.213 44.9261C254.597 44.6799 254.788 44.3082 254.788 43.8111C254.788 43.5175 254.715 43.2595 254.568 43.0369C254.421 42.8097 254.215 42.6345 253.95 42.5114C253.685 42.3883 253.373 42.3267 253.013 42.3267H251.344V40.5014H253.013C253.548 40.5014 253.953 40.3783 254.227 40.1321C254.507 39.8859 254.646 39.5758 254.646 39.2017C254.646 38.7992 254.5 38.4725 254.206 38.2216C253.917 37.9706 253.517 37.8452 253.006 37.8452C252.494 37.8452 252.068 37.9612 251.727 38.1932C251.391 38.4252 251.216 38.7235 251.202 39.0881H248.666C248.676 38.4536 248.865 37.902 249.234 37.4332C249.608 36.9645 250.11 36.5999 250.74 36.3395C251.375 36.0791 252.089 35.9489 252.885 35.9489C253.737 35.9489 254.473 36.0767 255.094 36.3324C255.714 36.5881 256.192 36.9455 256.528 37.4048C256.865 37.8594 257.033 38.3944 257.033 39.0099C257.033 39.6018 256.848 40.0919 256.479 40.4801C256.109 40.8636 255.612 41.1383 254.987 41.304V41.4176C255.418 41.4413 255.806 41.5644 256.152 41.7869C256.498 42.0047 256.772 42.3007 256.976 42.6747C257.179 43.0488 257.281 43.482 257.281 43.9744C257.281 44.642 257.089 45.2197 256.706 45.7074C256.322 46.1903 255.795 46.562 255.122 46.8224C254.455 47.0829 253.69 47.2131 252.828 47.2131C251.99 47.2131 251.24 47.0876 250.577 46.8366C249.919 46.581 249.395 46.214 249.007 45.7358C248.619 45.2576 248.413 44.6823 248.389 44.0099ZM259.305 47V36.0909H263.886C265.179 36.0909 266.199 36.349 266.947 36.8651C267.7 37.3812 268.077 38.1009 268.077 39.0241C268.077 39.6349 267.864 40.1345 267.438 40.5227C267.016 40.9062 266.441 41.1643 265.712 41.2969C266.285 41.3442 266.786 41.4886 267.217 41.7301C267.653 41.9716 267.994 42.2888 268.24 42.6818C268.486 43.0748 268.609 43.527 268.609 44.0384C268.609 44.6397 268.451 45.1629 268.134 45.608C267.821 46.0483 267.364 46.3916 266.763 46.6378C266.166 46.8793 265.442 47 264.589 47H259.305ZM261.713 44.9759H264.589C265.063 44.9759 265.435 44.8646 265.705 44.642C265.974 44.4148 266.109 44.107 266.109 43.7188C266.109 43.2689 265.974 42.9162 265.705 42.6605C265.435 42.4001 265.063 42.2699 264.589 42.2699H261.713V44.9759ZM261.713 40.608H263.936C264.286 40.608 264.587 40.5582 264.838 40.4588C265.089 40.3546 265.281 40.2102 265.413 40.0256C265.546 39.8362 265.612 39.6113 265.612 39.3509C265.612 38.9768 265.458 38.6832 265.151 38.4702C264.848 38.2571 264.426 38.1506 263.886 38.1506H261.713V40.608ZM275.561 47.2131C274.467 47.2131 273.522 46.9858 272.727 46.5312C271.936 46.072 271.328 45.4233 270.902 44.5852C270.475 43.7424 270.262 42.7505 270.262 41.6094C270.262 40.4872 270.475 39.5024 270.902 38.6548C271.333 37.8026 271.934 37.1397 272.706 36.6662C273.477 36.188 274.384 35.9489 275.426 35.9489C276.098 35.9489 276.733 36.0578 277.329 36.2756C277.931 36.4886 278.461 36.8201 278.92 37.2699C279.384 37.7197 279.749 38.2926 280.014 38.9886C280.279 39.6799 280.412 40.5038 280.412 41.4602V42.2486H271.47V40.5156H277.947C277.942 40.0232 277.836 39.5852 277.627 39.2017C277.419 38.8134 277.128 38.508 276.754 38.2855C276.385 38.063 275.954 37.9517 275.461 37.9517C274.936 37.9517 274.474 38.0795 274.076 38.3352C273.679 38.5862 273.368 38.9176 273.146 39.3295C272.928 39.7367 272.817 40.1842 272.812 40.6719V42.1847C272.812 42.8191 272.928 43.3636 273.16 43.8182C273.392 44.268 273.717 44.6136 274.133 44.8551C274.55 45.0919 275.038 45.2102 275.596 45.2102C275.97 45.2102 276.309 45.1581 276.612 45.054C276.915 44.9451 277.178 44.7865 277.4 44.5781C277.623 44.3698 277.791 44.1117 277.904 43.804L280.305 44.0739C280.154 44.7083 279.865 45.2623 279.439 45.7358C279.017 46.2045 278.477 46.5691 277.819 46.8295C277.161 47.0852 276.408 47.2131 275.561 47.2131ZM281.983 44.0099H284.533C284.556 44.4171 284.739 44.732 285.08 44.9545C285.42 45.1771 285.863 45.2884 286.408 45.2884C286.962 45.2884 287.428 45.1676 287.807 44.9261C288.19 44.6799 288.382 44.3082 288.382 43.8111C288.382 43.5175 288.309 43.2595 288.162 43.0369C288.015 42.8097 287.809 42.6345 287.544 42.5114C287.279 42.3883 286.966 42.3267 286.607 42.3267H284.938V40.5014H286.607C287.142 40.5014 287.546 40.3783 287.821 40.1321C288.1 39.8859 288.24 39.5758 288.24 39.2017C288.24 38.7992 288.093 38.4725 287.8 38.2216C287.511 37.9706 287.111 37.8452 286.599 37.8452C286.088 37.8452 285.662 37.9612 285.321 38.1932C284.985 38.4252 284.81 38.7235 284.795 39.0881H282.26C282.269 38.4536 282.459 37.902 282.828 37.4332C283.202 36.9645 283.704 36.5999 284.334 36.3395C284.968 36.0791 285.683 35.9489 286.479 35.9489C287.331 35.9489 288.067 36.0767 288.688 36.3324C289.308 36.5881 289.786 36.9455 290.122 37.4048C290.458 37.8594 290.626 38.3944 290.626 39.0099C290.626 39.6018 290.442 40.0919 290.072 40.4801C289.703 40.8636 289.206 41.1383 288.581 41.304V41.4176C289.012 41.4413 289.4 41.5644 289.746 41.7869C290.091 42.0047 290.366 42.3007 290.57 42.6747C290.773 43.0488 290.875 43.482 290.875 43.9744C290.875 44.642 290.683 45.2197 290.3 45.7074C289.916 46.1903 289.388 46.562 288.716 46.8224C288.048 47.0829 287.284 47.2131 286.422 47.2131C285.584 47.2131 284.833 47.0876 284.17 46.8366C283.512 46.581 282.989 46.214 282.601 45.7358C282.213 45.2576 282.007 44.6823 281.983 44.0099ZM297.729 47.2131C296.635 47.2131 295.69 46.9858 294.895 46.5312C294.104 46.072 293.496 45.4233 293.07 44.5852C292.643 43.7424 292.43 42.7505 292.43 41.6094C292.43 40.4872 292.643 39.5024 293.07 38.6548C293.5 37.8026 294.102 37.1397 294.874 36.6662C295.645 36.188 296.552 35.9489 297.594 35.9489C298.266 35.9489 298.901 36.0578 299.497 36.2756C300.098 36.4886 300.629 36.8201 301.088 37.2699C301.552 37.7197 301.917 38.2926 302.182 38.9886C302.447 39.6799 302.58 40.5038 302.58 41.4602V42.2486H293.638V40.5156H300.115C300.11 40.0232 300.004 39.5852 299.795 39.2017C299.587 38.8134 299.296 38.508 298.922 38.2855C298.553 38.063 298.122 37.9517 297.629 37.9517C297.104 37.9517 296.642 38.0795 296.244 38.3352C295.847 38.5862 295.536 38.9176 295.314 39.3295C295.096 39.7367 294.985 40.1842 294.98 40.6719V42.1847C294.98 42.8191 295.096 43.3636 295.328 43.8182C295.56 44.268 295.884 44.6136 296.301 44.8551C296.718 45.0919 297.205 45.2102 297.764 45.2102C298.138 45.2102 298.477 45.1581 298.78 45.054C299.083 44.9451 299.346 44.7865 299.568 44.5781C299.791 44.3698 299.959 44.1117 300.072 43.804L302.473 44.0739C302.321 44.7083 302.033 45.2623 301.607 45.7358C301.185 46.2045 300.645 46.5691 299.987 46.8295C299.329 47.0852 298.576 47.2131 297.729 47.2131ZM312.248 40.4801V42.5895H306.438V40.4801H312.248ZM307.233 36.0909V47H304.755V36.0909H307.233ZM313.931 36.0909V47H311.459V36.0909H313.931ZM324.025 40.4801V42.5895H318.215V40.4801H324.025ZM319.011 36.0909V47H316.532V36.0909H319.011ZM325.708 36.0909V47H323.237V36.0909H325.708ZM334.758 47V38.179H332.429C331.837 38.179 331.382 38.3163 331.065 38.5909C330.748 38.8655 330.592 39.2064 330.596 39.6136C330.592 40.0208 330.741 40.357 331.044 40.6222C331.347 40.8873 331.78 41.0199 332.343 41.0199H335.568V42.8949H332.343C331.472 42.8949 330.719 42.7576 330.085 42.483C329.45 42.2083 328.963 41.8201 328.622 41.3182C328.281 40.8163 328.11 40.2292 328.11 39.5568C328.11 38.8561 328.283 38.2476 328.629 37.7315C328.979 37.2107 329.476 36.8082 330.12 36.5241C330.769 36.2353 331.538 36.0909 332.429 36.0909H337.166V47H334.758ZM327.713 47L330.76 41.4034H333.295L330.241 47H327.713ZM351.931 36.0909V38.2003H347.23V47H344.716V36.0909H351.931ZM355.591 51.0909C355.241 51.0909 354.916 51.0625 354.618 51.0057C354.324 50.9536 354.09 50.892 353.915 50.821L354.511 48.8182C354.885 48.9271 355.219 48.9792 355.513 48.9744C355.806 48.9697 356.064 48.8774 356.287 48.6974C356.514 48.5223 356.706 48.2287 356.862 47.8168L357.082 47.2273L353.126 36.0909H355.854L358.368 44.3295H358.482L361.003 36.0909H363.737L359.369 48.321C359.166 48.8987 358.896 49.3935 358.56 49.8054C358.223 50.2221 357.812 50.5393 357.324 50.7571C356.841 50.9796 356.263 51.0909 355.591 51.0909ZM371.795 44.0099L375.033 36.0909H377.107L372.697 47H370.9L366.589 36.0909H368.641L371.795 44.0099ZM367.995 36.0909V47H365.516V36.0909H367.995ZM375.701 47V36.0909H378.158V47H375.701ZM383.89 47.2202C383.199 47.2202 382.576 47.0971 382.022 46.8509C381.473 46.5999 381.037 46.2306 380.715 45.7429C380.398 45.2552 380.239 44.6539 380.239 43.9389C380.239 43.3234 380.353 42.8144 380.58 42.4119C380.808 42.0095 381.118 41.6875 381.511 41.446C381.904 41.2045 382.346 41.0223 382.839 40.8991C383.336 40.7713 383.85 40.679 384.38 40.6222C385.019 40.5559 385.538 40.4967 385.935 40.4446C386.333 40.3878 386.622 40.3026 386.802 40.1889C386.987 40.0705 387.079 39.8883 387.079 39.642V39.5994C387.079 39.0644 386.92 38.6501 386.603 38.3565C386.286 38.063 385.829 37.9162 385.232 37.9162C384.603 37.9162 384.103 38.0535 383.734 38.3281C383.369 38.6027 383.123 38.9271 382.995 39.3011L380.594 38.9602C380.784 38.2973 381.096 37.7434 381.532 37.2983C381.968 36.8485 382.5 36.5123 383.13 36.2898C383.76 36.0625 384.456 35.9489 385.218 35.9489C385.744 35.9489 386.267 36.0104 386.788 36.1335C387.308 36.2566 387.784 36.4602 388.215 36.7443C388.646 37.0237 388.992 37.4048 389.252 37.8878C389.517 38.3707 389.65 38.9744 389.65 39.6989V47H387.178V45.5014H387.093C386.937 45.8045 386.717 46.0885 386.433 46.3537C386.153 46.6141 385.8 46.8248 385.374 46.9858C384.953 47.142 384.458 47.2202 383.89 47.2202ZM384.558 45.331C385.074 45.331 385.521 45.2292 385.9 45.0256C386.279 44.8172 386.57 44.5426 386.773 44.2017C386.982 43.8608 387.086 43.4891 387.086 43.0866V41.8011C387.005 41.8674 386.868 41.929 386.674 41.9858C386.485 42.0426 386.272 42.0923 386.035 42.1349C385.798 42.1776 385.564 42.2154 385.332 42.2486C385.1 42.2817 384.898 42.3101 384.728 42.3338C384.344 42.3859 384.001 42.4711 383.698 42.5895C383.395 42.7079 383.156 42.8736 382.981 43.0866C382.806 43.295 382.718 43.5649 382.718 43.8963C382.718 44.3698 382.891 44.7273 383.237 44.9688C383.582 45.2102 384.022 45.331 384.558 45.331ZM399.728 40.4801V42.5895H393.918V40.4801H399.728ZM394.714 36.0909V47H392.235V36.0909H394.714ZM401.411 36.0909V47H398.94V36.0909H401.411ZM404.012 47V36.0909H406.583V47H404.012ZM405.305 34.5426C404.898 34.5426 404.547 34.4077 404.254 34.1378C403.96 33.8632 403.814 33.5341 403.814 33.1506C403.814 32.7623 403.96 32.4332 404.254 32.1634C404.547 31.8887 404.898 31.7514 405.305 31.7514C405.717 31.7514 406.067 31.8887 406.356 32.1634C406.65 32.4332 406.797 32.7623 406.797 33.1506C406.797 33.5341 406.65 33.8632 406.356 34.1378C406.067 34.4077 405.717 34.5426 405.305 34.5426ZM408.631 38.2003V36.0909H418.176V38.2003H414.646V47H412.161V38.2003H408.631ZM422.913 47.2202C422.222 47.2202 421.599 47.0971 421.045 46.8509C420.496 46.5999 420.061 46.2306 419.739 45.7429C419.421 45.2552 419.263 44.6539 419.263 43.9389C419.263 43.3234 419.376 42.8144 419.604 42.4119C419.831 42.0095 420.141 41.6875 420.534 41.446C420.927 41.2045 421.37 41.0223 421.862 40.8991C422.359 40.7713 422.873 40.679 423.403 40.6222C424.043 40.5559 424.561 40.4967 424.959 40.4446C425.357 40.3878 425.645 40.3026 425.825 40.1889C426.01 40.0705 426.102 39.8883 426.102 39.642V39.5994C426.102 39.0644 425.944 38.6501 425.626 38.3565C425.309 38.063 424.852 37.9162 424.256 37.9162C423.626 37.9162 423.126 38.0535 422.757 38.3281C422.393 38.6027 422.146 38.9271 422.018 39.3011L419.618 38.9602C419.807 38.2973 420.12 37.7434 420.555 37.2983C420.991 36.8485 421.524 36.5123 422.153 36.2898C422.783 36.0625 423.479 35.9489 424.241 35.9489C424.767 35.9489 425.29 36.0104 425.811 36.1335C426.332 36.2566 426.808 36.4602 427.239 36.7443C427.67 37.0237 428.015 37.4048 428.276 37.8878C428.541 38.3707 428.673 38.9744 428.673 39.6989V47H426.202V45.5014H426.116C425.96 45.8045 425.74 46.0885 425.456 46.3537C425.177 46.6141 424.824 46.8248 424.398 46.9858C423.976 47.142 423.482 47.2202 422.913 47.2202ZM423.581 45.331C424.097 45.331 424.545 45.2292 424.923 45.0256C425.302 44.8172 425.593 44.5426 425.797 44.2017C426.005 43.8608 426.109 43.4891 426.109 43.0866V41.8011C426.029 41.8674 425.892 41.929 425.697 41.9858C425.508 42.0426 425.295 42.0923 425.058 42.1349C424.821 42.1776 424.587 42.2154 424.355 42.2486C424.123 42.2817 423.922 42.3101 423.751 42.3338C423.368 42.3859 423.025 42.4711 422.722 42.5895C422.419 42.7079 422.179 42.8736 422.004 43.0866C421.829 43.295 421.741 43.5649 421.741 43.8963C421.741 44.3698 421.914 44.7273 422.26 44.9688C422.606 45.2102 423.046 45.331 423.581 45.331ZM431.259 51.0909V36.0909H433.787V37.8949H433.936C434.069 37.6297 434.256 37.348 434.497 37.0497C434.739 36.7467 435.065 36.4886 435.477 36.2756C435.889 36.0578 436.415 35.9489 437.054 35.9489C437.897 35.9489 438.657 36.1643 439.334 36.5952C440.016 37.0213 440.555 37.6534 440.953 38.4915C441.356 39.3248 441.557 40.3475 441.557 41.5597C441.557 42.7576 441.36 43.7756 440.967 44.6136C440.574 45.4517 440.039 46.0909 439.362 46.5312C438.685 46.9716 437.918 47.1918 437.061 47.1918C436.436 47.1918 435.918 47.0876 435.506 46.8793C435.094 46.6709 434.762 46.42 434.511 46.1264C434.265 45.8281 434.073 45.5464 433.936 45.2812H433.83V51.0909H431.259ZM433.78 41.5455C433.78 42.2509 433.879 42.8688 434.078 43.3991C434.282 43.9295 434.573 44.3437 434.952 44.642C435.335 44.9356 435.799 45.0824 436.344 45.0824C436.912 45.0824 437.388 44.9309 437.771 44.6278C438.155 44.3201 438.444 43.901 438.638 43.3707C438.837 42.8357 438.936 42.2273 438.936 41.5455C438.936 40.8684 438.839 40.267 438.645 39.7415C438.451 39.2159 438.162 38.804 437.778 38.5057C437.395 38.2074 436.917 38.0582 436.344 38.0582C435.795 38.0582 435.328 38.2027 434.945 38.4915C434.561 38.7803 434.27 39.1851 434.071 39.706C433.877 40.2268 433.78 40.84 433.78 41.5455ZM443.759 47V36.0909H446.33V40.4943H447.267L450.548 36.0909H453.645L449.604 41.446L453.688 47H450.577L447.587 42.8878H446.33V47H443.759ZM457.624 43.5199L461.992 36.0909H464.634V47H462.148V39.5639L457.794 47H455.145V36.0909H457.624V43.5199ZM473.648 47.1989V44.983H474.479C474.853 44.983 475.161 44.9285 475.403 44.8196C475.644 44.7107 475.838 44.5545 475.985 44.3509C476.137 44.1473 476.262 43.9105 476.362 43.6406L476.553 43.1506L471.354 32.4545H474.11L477.732 40.2386L480.864 32.4545H483.577L478.563 44.3153C478.331 44.8267 478.064 45.3026 477.761 45.7429C477.458 46.1785 477.062 46.5312 476.575 46.8011C476.092 47.0663 475.462 47.1989 474.685 47.1989H473.648ZM484.54 47V36.0909H487.111V40.4943H488.048L491.33 36.0909H494.426L490.385 41.446L494.469 47H491.358L488.368 42.8878H487.111V47H484.54ZM495.926 51.0909V36.0909H498.455V37.8949H498.604C498.737 37.6297 498.924 37.348 499.165 37.0497C499.407 36.7467 499.733 36.4886 500.145 36.2756C500.557 36.0578 501.083 35.9489 501.722 35.9489C502.565 35.9489 503.325 36.1643 504.002 36.5952C504.684 37.0213 505.223 37.6534 505.621 38.4915C506.024 39.3248 506.225 40.3475 506.225 41.5597C506.225 42.7576 506.028 43.7756 505.635 44.6136C505.242 45.4517 504.707 46.0909 504.03 46.5312C503.353 46.9716 502.586 47.1918 501.729 47.1918C501.104 47.1918 500.586 47.0876 500.174 46.8793C499.762 46.6709 499.43 46.42 499.179 46.1264C498.933 45.8281 498.741 45.5464 498.604 45.2812H498.498V51.0909H495.926ZM498.448 41.5455C498.448 42.2509 498.547 42.8688 498.746 43.3991C498.95 43.9295 499.241 44.3437 499.62 44.642C500.003 44.9356 500.467 45.0824 501.012 45.0824C501.58 45.0824 502.056 44.9309 502.439 44.6278C502.823 44.3201 503.112 43.901 503.306 43.3707C503.505 42.8357 503.604 42.2273 503.604 41.5455C503.604 40.8684 503.507 40.267 503.313 39.7415C503.119 39.2159 502.83 38.804 502.446 38.5057C502.063 38.2074 501.585 38.0582 501.012 38.0582C500.462 38.0582 499.996 38.2027 499.613 38.4915C499.229 38.7803 498.938 39.1851 498.739 39.706C498.545 40.2268 498.448 40.84 498.448 41.5455ZM511.566 47.2202C510.874 47.2202 510.252 47.0971 509.698 46.8509C509.149 46.5999 508.713 46.2306 508.391 45.7429C508.074 45.2552 507.915 44.6539 507.915 43.9389C507.915 43.3234 508.029 42.8144 508.256 42.4119C508.483 42.0095 508.793 41.6875 509.186 41.446C509.579 41.2045 510.022 41.0223 510.515 40.8991C511.012 40.7713 511.525 40.679 512.056 40.6222C512.695 40.5559 513.213 40.4967 513.611 40.4446C514.009 40.3878 514.298 40.3026 514.478 40.1889C514.662 40.0705 514.755 39.8883 514.755 39.642V39.5994C514.755 39.0644 514.596 38.6501 514.279 38.3565C513.962 38.063 513.505 37.9162 512.908 37.9162C512.278 37.9162 511.779 38.0535 511.409 38.3281C511.045 38.6027 510.799 38.9271 510.671 39.3011L508.27 38.9602C508.46 38.2973 508.772 37.7434 509.208 37.2983C509.643 36.8485 510.176 36.5123 510.806 36.2898C511.435 36.0625 512.132 35.9489 512.894 35.9489C513.419 35.9489 513.943 36.0104 514.463 36.1335C514.984 36.2566 515.46 36.4602 515.891 36.7443C516.322 37.0237 516.667 37.4048 516.928 37.8878C517.193 38.3707 517.326 38.9744 517.326 39.6989V47H514.854V45.5014H514.769C514.613 45.8045 514.392 46.0885 514.108 46.3537C513.829 46.6141 513.476 46.8248 513.05 46.9858C512.629 47.142 512.134 47.2202 511.566 47.2202ZM512.233 45.331C512.749 45.331 513.197 45.2292 513.576 45.0256C513.954 44.8172 514.246 44.5426 514.449 44.2017C514.658 43.8608 514.762 43.4891 514.762 43.0866V41.8011C514.681 41.8674 514.544 41.929 514.35 41.9858C514.16 42.0426 513.947 42.0923 513.711 42.1349C513.474 42.1776 513.239 42.2154 513.007 42.2486C512.775 42.2817 512.574 42.3101 512.404 42.3338C512.02 42.3859 511.677 42.4711 511.374 42.5895C511.071 42.7079 510.832 42.8736 510.657 43.0866C510.481 43.295 510.394 43.5649 510.394 43.8963C510.394 44.3698 510.567 44.7273 510.912 44.9688C511.258 45.2102 511.698 45.331 512.233 45.331ZM519.911 47V36.0909H522.482V47H519.911ZM519.08 34.4858C518.706 34.4858 518.384 34.3532 518.114 34.0881C517.839 33.8229 517.702 33.5104 517.702 33.1506C517.702 32.7718 517.839 32.4545 518.114 32.1989C518.384 31.9384 518.706 31.8082 519.08 31.8082C519.463 31.8082 519.785 31.9384 520.046 32.1989C520.311 32.4545 520.444 32.7718 520.444 33.1506C520.444 33.5104 520.311 33.8229 520.046 34.0881C519.785 34.3532 519.463 34.4858 519.08 34.4858ZM523.341 34.4858C522.967 34.4858 522.643 34.3532 522.368 34.0881C522.098 33.8229 521.963 33.5104 521.963 33.1506C521.963 32.7718 522.098 32.4545 522.368 32.1989C522.643 31.9384 522.967 31.8082 523.341 31.8082C523.725 31.8082 524.047 31.9384 524.307 32.1989C524.572 32.4545 524.705 32.7718 524.705 33.1506C524.705 33.5104 524.572 33.8229 524.307 34.0881C524.047 34.3532 523.725 34.4858 523.341 34.4858ZM532.619 40.4801V42.5895H526.809V40.4801H532.619ZM527.604 36.0909V47H525.126V36.0909H527.604ZM534.302 36.0909V47H531.83V36.0909H534.302ZM541.662 47.2131C540.596 47.2131 539.673 46.9787 538.892 46.5099C538.11 46.0412 537.504 45.3854 537.074 44.5426C536.647 43.6998 536.434 42.715 536.434 41.5881C536.434 40.4612 536.647 39.474 537.074 38.6264C537.504 37.7789 538.11 37.1207 538.892 36.652C539.673 36.1832 540.596 35.9489 541.662 35.9489C542.727 35.9489 543.65 36.1832 544.431 36.652C545.213 37.1207 545.816 37.7789 546.243 38.6264C546.673 39.474 546.889 40.4612 546.889 41.5881C546.889 42.715 546.673 43.6998 546.243 44.5426C545.816 45.3854 545.213 46.0412 544.431 46.5099C543.65 46.9787 542.727 47.2131 541.662 47.2131ZM541.676 45.1534C542.253 45.1534 542.736 44.9948 543.125 44.6776C543.513 44.3556 543.802 43.9247 543.991 43.3849C544.185 42.8452 544.282 42.2438 544.282 41.581C544.282 40.9134 544.185 40.3097 543.991 39.7699C543.802 39.2254 543.513 38.7921 543.125 38.4702C542.736 38.1482 542.253 37.9872 541.676 37.9872C541.084 37.9872 540.592 38.1482 540.199 38.4702C539.81 38.7921 539.519 39.2254 539.325 39.7699C539.136 40.3097 539.041 40.9134 539.041 41.581C539.041 42.2438 539.136 42.8452 539.325 43.3849C539.519 43.9247 539.81 44.3556 540.199 44.6776C540.592 44.9948 541.084 45.1534 541.676 45.1534ZM554.831 40.5582V42.6747H548.957V40.5582H554.831ZM550.996 36.0909V47H548.418V36.0909H550.996ZM558.126 47.2131C557.075 47.2131 556.164 46.974 555.392 46.4957C554.625 46.0175 554.031 45.3546 553.609 44.5071C553.188 43.6596 552.977 42.6795 552.977 41.5668C552.977 40.4541 553.188 39.4763 553.609 38.6335C554.031 37.7907 554.625 37.1326 555.392 36.6591C556.164 36.1856 557.075 35.9489 558.126 35.9489C559.173 35.9489 560.08 36.1856 560.847 36.6591C561.618 37.1326 562.215 37.7907 562.636 38.6335C563.063 39.4763 563.276 40.4541 563.276 41.5668C563.276 42.6795 563.063 43.6596 562.636 44.5071C562.215 45.3546 561.618 46.0175 560.847 46.4957C560.08 46.974 559.173 47.2131 558.126 47.2131ZM558.126 45.0824C558.747 45.0824 559.253 44.9261 559.646 44.6136C560.039 44.3011 560.328 43.8797 560.513 43.3494C560.697 42.8191 560.79 42.2249 560.79 41.5668C560.79 40.9086 560.697 40.3144 560.513 39.7841C560.328 39.2538 560.039 38.8348 559.646 38.527C559.253 38.2145 558.747 38.0582 558.126 38.0582C557.501 38.0582 556.99 38.2145 556.592 38.527C556.199 38.8348 555.911 39.2538 555.726 39.7841C555.541 40.3144 555.449 40.9086 555.449 41.5668C555.449 42.2296 555.541 42.8262 555.726 43.3565C555.911 43.8868 556.199 44.3082 556.592 44.6207C556.99 44.9285 557.501 45.0824 558.126 45.0824Z" fill="#181818"/>
<path d="M58.7533 41.4265L59.0284 42.0439C60.2055 44.5481 62.0594 46.6503 64.368 48.0987L64.7968 48.3567C64.8423 48.3828 64.8802 48.421 64.9065 48.4672C64.9329 48.5135 64.9468 48.5661 64.9468 48.6197C64.9468 48.6733 64.9329 48.7259 64.9065 48.7721C64.8802 48.8183 64.8423 48.8565 64.7968 48.8826C62.2923 50.3314 60.2792 52.5345 59.0284 55.1954L58.7533 55.8145C58.7289 55.8698 58.6895 55.9167 58.6399 55.9496C58.5903 55.9825 58.5325 56 58.4734 56C58.4144 56 58.3566 55.9825 58.3069 55.9496C58.2573 55.9167 58.2179 55.8698 58.1935 55.8145L57.9184 55.1954C56.6676 52.5345 54.6545 50.3314 52.15 48.8826C52.1045 48.8565 52.0666 48.8183 52.0403 48.7721C52.0139 48.7259 52 48.6733 52 48.6197C52 48.5661 52.0139 48.5135 52.0403 48.4672C52.0666 48.421 52.1045 48.3828 52.15 48.3567L52.5788 48.0987C54.8875 46.6503 56.7413 44.5481 57.9184 42.0439L58.1935 41.4265C58.2179 41.3712 58.2573 41.3243 58.3069 41.2914C58.3566 41.2585 58.4144 41.241 58.4734 41.241C58.5325 41.241 58.5903 41.2585 58.6399 41.2914C58.6895 41.3243 58.7289 41.3712 58.7533 41.4265ZM73.1622 24.3273C75.2919 29.4585 79.0097 33.7226 83.7379 36.4568C83.8174 36.5027 83.8836 36.5695 83.9297 36.6503C83.9757 36.7312 84 36.8233 84 36.917C84 37.0107 83.9757 37.1028 83.9297 37.1837C83.8836 37.2645 83.8174 37.3313 83.7379 37.3772C79.0094 40.1117 75.2915 44.3765 73.1622 49.5084C73.1202 49.6058 73.0515 49.6886 72.9647 49.7467C72.8778 49.8048 72.7764 49.8357 72.6728 49.8357C72.5691 49.8357 72.4678 49.8048 72.3809 49.7467C72.294 49.6886 72.2254 49.6058 72.1833 49.5084C70.054 44.3765 66.3362 40.1117 61.6076 37.3772C61.5281 37.3313 61.4619 37.2645 61.4159 37.1837C61.3698 37.1028 61.3455 37.0107 61.3455 36.917C61.3455 36.8233 61.3698 36.7312 61.4159 36.6503C61.4619 36.5695 61.5281 36.5027 61.6076 36.4568C66.3358 33.7226 70.0536 29.4585 72.1833 24.3273C72.2254 24.2299 72.294 24.1471 72.3809 24.089C72.4678 24.0309 72.5691 24 72.6728 24C72.7764 24 72.8778 24.0309 72.9647 24.089C73.0515 24.1471 73.1202 24.2299 73.1622 24.3273Z" fill="#323C92"/>
<path d="M75.7886 40.7509L75.789 40.7507C76.9537 40.2484 78.1941 40 79.5 40C80.8059 40 82.0463 40.2484 83.211 40.7507L83.2114 40.7509C84.3567 41.2454 85.3629 41.9212 86.2209 42.7791C87.0788 43.6371 87.7543 44.6433 88.2483 45.7886L75.7886 40.7509ZM75.7886 40.7509C74.6433 41.2454 73.6371 41.9212 72.7791 42.7791C71.9212 43.6371 71.2457 44.6433 70.7517 45.7886L75.7886 40.7509ZM79.5 59C78.1941 59 76.9537 58.7513 75.789 58.2485L79.5 59ZM79.5 59C80.8059 59 82.0463 58.7513 83.211 58.2485C84.3564 57.7545 85.3628 57.0789 86.2209 56.2209C87.0789 55.3628 87.7545 54.3564 88.2485 53.211C88.7513 52.0463 89 50.8059 89 49.5C89 48.1941 88.7513 46.9537 88.2485 45.789L79.5 59ZM72.7791 56.2209C73.6371 57.0788 74.6433 57.7543 75.7886 58.2483L70.7515 45.789C70.2487 46.9537 70 48.1941 70 49.5C70 50.8059 70.2487 52.0463 70.7515 53.211C71.2455 54.3564 71.9211 55.3628 72.7791 56.2209Z" fill="#323C92" stroke="#C8DFF6" stroke-width="2"/>
</svg>
