<svg width="32" height="32" viewBox="0 0 32 32" fill="none" xmlns="http://www.w3.org/2000/svg">
<path d="M6.75333 17.4265L7.0284 18.0439C8.20549 20.5481 10.0594 22.6503 12.368 24.0987L12.7968 24.3567C12.8423 24.3828 12.8802 24.421 12.9065 24.4672C12.9329 24.5135 12.9468 24.5661 12.9468 24.6197C12.9468 24.6733 12.9329 24.7259 12.9065 24.7721C12.8802 24.8183 12.8423 24.8565 12.7968 24.8826C10.2923 26.3314 8.27918 28.5345 7.0284 31.1954L6.75333 31.8145C6.72892 31.8698 6.68954 31.9167 6.6399 31.9496C6.59026 31.9825 6.53246 32 6.47341 32C6.41436 32 6.35656 31.9825 6.30692 31.9496C6.25728 31.9167 6.2179 31.8698 6.19348 31.8145L5.91841 31.1954C4.66763 28.5345 2.65455 26.3314 0.149994 24.8826C0.104511 24.8565 0.066633 24.8183 0.0402665 24.7721C0.0139 24.7259 0 24.6733 0 24.6197C0 24.5661 0.0139 24.5135 0.0402665 24.4672C0.066633 24.421 0.104511 24.3828 0.149994 24.3567L0.578782 24.0987C2.88745 22.6503 4.74132 20.5481 5.91841 18.0439L6.19348 17.4265C6.2179 17.3712 6.25728 17.3243 6.30692 17.2914C6.35656 17.2585 6.41436 17.241 6.47341 17.241C6.53246 17.241 6.59026 17.2585 6.6399 17.2914C6.68954 17.3243 6.72892 17.3712 6.75333 17.4265ZM21.1622 0.327259C23.2919 5.45853 27.0097 9.72259 31.7379 12.4568C31.8174 12.5027 31.8836 12.5695 31.9297 12.6503C31.9757 12.7312 32 12.8233 32 12.917C32 13.0107 31.9757 13.1028 31.9297 13.1837C31.8836 13.2645 31.8174 13.3313 31.7379 13.3772C27.0094 16.1117 23.2915 20.3765 21.1622 25.5084C21.1202 25.6058 21.0515 25.6886 20.9647 25.7467C20.8778 25.8048 20.7764 25.8357 20.6728 25.8357C20.5691 25.8357 20.4678 25.8048 20.3809 25.7467C20.294 25.6886 20.2254 25.6058 20.1833 25.5084C18.054 20.3765 14.3362 16.1117 9.6076 13.3772C9.52812 13.3313 9.46194 13.2645 9.41588 13.1837C9.36982 13.1028 9.34554 13.0107 9.34554 12.917C9.34554 12.8233 9.36982 12.7312 9.41588 12.6503C9.46194 12.5695 9.52812 12.5027 9.6076 12.4568C14.3358 9.72259 18.0536 5.45853 20.1833 0.327259C20.2254 0.229854 20.294 0.147092 20.3809 0.0890049C20.4678 0.0309178 20.5691 0 20.6728 0C20.7764 0 20.8778 0.0309178 20.9647 0.0890049C21.0515 0.147092 21.1202 0.229854 21.1622 0.327259Z" fill="#323C92"/>
</svg>
