<svg width="21" height="37" viewBox="0 0 21 37" fill="none" xmlns="http://www.w3.org/2000/svg">
<path fill-rule="evenodd" clip-rule="evenodd" d="M20.0009 3.09478C20.5706 2.52507 20.5706 1.60138 20.0009 1.03167C19.4312 0.461958 18.5075 0.461957 17.9378 1.03167L2.1078 16.8617C2.10777 16.8617 2.10772 16.8617 2.10769 16.8617C2.10765 16.8616 2.1076 16.8616 2.10757 16.8617L1.05378 17.9155C0.471762 18.4975 0.471762 19.4411 1.05378 20.0231L17.5141 36.4834C18.0961 37.0655 19.0398 37.0655 19.6218 36.4834C20.2038 35.9014 20.2038 34.9578 19.6218 34.3758L5.58507 20.339C4.80402 19.558 4.80402 18.2917 5.58507 17.5106L20.0009 3.09478Z" fill="#323C92"/>
</svg>
