<svg width="27" height="27" viewBox="0 0 27 27" fill="none" xmlns="http://www.w3.org/2000/svg">
<path fill-rule="evenodd" clip-rule="evenodd" d="M17.8808 16.1865C19.2179 14.4851 20.0154 12.3395 20.0154 10.0077C20.0154 4.48062 15.5348 0 10.0077 0C4.48059 0 0 4.48062 0 10.0077C0 15.5349 4.48059 20.0155 10.0077 20.0155C12.3396 20.0155 14.4853 19.2179 16.1868 17.8806C16.2506 18.064 16.3558 18.2362 16.5023 18.3827L24.7298 26.6103C25.2491 27.1296 26.0911 27.1296 26.6105 26.6103C27.1298 26.091 27.1298 25.249 26.6105 24.7296L18.3829 16.5021C18.2364 16.3555 18.0642 16.2503 17.8808 16.1865ZM10.0077 17.3917C5.92968 17.3917 2.62381 14.0858 2.62381 10.0077C2.62381 5.92972 5.92968 2.62382 10.0077 2.62382C14.0857 2.62382 17.3916 5.92972 17.3916 10.0077C17.3916 14.0858 14.0857 17.3917 10.0077 17.3917Z" fill="white"/>
</svg>
