<svg width="62" height="62" viewBox="0 0 62 62" fill="none" xmlns="http://www.w3.org/2000/svg">
<path d="M0 31C0 13.8792 13.8792 0 31 0C48.1208 0 62 13.8792 62 31C62 48.1208 48.1208 62 31 62C13.8792 62 0 48.1208 0 31Z" fill="white"/>
<path d="M41.79 42.6056L38.8 39.6388H20.6C19.885 39.6388 19.2731 39.3864 18.7644 38.8816C18.2548 38.376 18 37.7684 18 37.059V21.5799C18 20.8704 18.2548 20.2628 18.7644 19.7572C19.2731 19.2524 19.885 19 20.6 19H41.4C42.115 19 42.7273 19.2524 43.2369 19.7572C43.7456 20.2628 44 20.8704 44 21.5799V41.6704C44 42.2509 43.7348 42.6538 43.2044 42.8791C42.6731 43.1053 42.2017 43.0141 41.79 42.6056Z" fill="#323C92"/>
</svg>
