<svg width="62" height="62" viewBox="0 0 62 62" fill="none" xmlns="http://www.w3.org/2000/svg">
<rect width="62" height="62" rx="31" fill="#181818"/>
<path d="M21.4 41C20.74 41 20.1752 40.7554 19.7056 40.2663C19.2352 39.7763 19 39.1875 19 38.5V23.5C19 22.8125 19.2352 22.2242 19.7056 21.735C20.1752 21.245 20.74 21 21.4 21H40.6C41.26 21 41.8252 21.245 42.2956 21.735C42.7652 22.2242 43 22.8125 43 23.5V38.5C43 39.1875 42.7652 39.7763 42.2956 40.2663C41.8252 40.7554 41.26 41 40.6 41H21.4ZM40.6 26L31.63 31.8438C31.53 31.9062 31.4248 31.9529 31.3144 31.9837C31.2048 32.0154 31.1 32.0312 31 32.0312C30.9 32.0312 30.7952 32.0154 30.6856 31.9837C30.5752 31.9529 30.47 31.9062 30.37 31.8438L21.4 26V38.5H40.6V26ZM31 29.75L40.6 23.5H21.4L31 29.75ZM21.4 26.3125V24.4688V24.5V24.4838V26.3125Z" fill="white"/>
</svg>
