<svg width="21" height="22" viewBox="0 0 21 22" fill="none" xmlns="http://www.w3.org/2000/svg">
<path d="M20.3149 11.5806C20.7559 10.988 21 10.2619 21 9.50638C21 8.30774 20.3411 7.17317 19.2806 6.54048C19.0076 6.37762 18.6968 6.29191 18.3802 6.29221H12.0855L12.243 3.0113C12.2797 2.21844 12.0041 1.46562 11.4686 0.891658C11.2058 0.608758 10.8888 0.383673 10.5371 0.230311C10.1853 0.0769502 9.80643 -0.00142826 9.42375 1.97019e-05C8.05875 1.97019e-05 6.85125 0.934372 6.489 2.27183L4.23412 10.5742H4.22625V22H16.6241C16.8656 22 17.1019 21.9519 17.3197 21.8558C18.5692 21.3139 19.3751 20.0726 19.3751 18.6951C19.3751 18.3587 19.3279 18.0277 19.2334 17.7073C19.6744 17.1147 19.9185 16.3885 19.9185 15.6331C19.9185 15.2967 19.8713 14.9657 19.7768 14.6453C20.2178 14.0527 20.4619 13.3265 20.4619 12.5711C20.4566 12.2347 20.4094 11.901 20.3149 11.5806ZM0 11.4285V21.1457C0 21.6182 0.375375 22 0.84 22H2.54625V10.5742H0.84C0.375375 10.5742 0 10.956 0 11.4285Z" fill="#7E89EB"/>
</svg>
