<svg width="20" height="20" viewBox="0 0 20 20" fill="none" xmlns="http://www.w3.org/2000/svg">
<circle cx="10" cy="10" r="10" fill="#E16058"/>
<path d="M12.3166 4.74759L10.1843 12.2938L8.99065 11.9739L10.9171 4.3726L12.3166 4.74759ZM8.77133 15.1798C8.5175 15.1118 8.32404 14.9625 8.19095 14.732C8.05787 14.5015 8.02533 14.2593 8.09335 14.0055C8.16136 13.7517 8.31062 13.5582 8.54113 13.4251C8.77164 13.292 9.01381 13.2595 9.26764 13.3275C9.52147 13.3955 9.71493 13.5448 9.84801 13.7753C9.9811 14.0058 10.0136 14.248 9.94562 14.5018C9.90058 14.6699 9.81635 14.8128 9.69291 14.9304C9.5729 15.049 9.4311 15.1323 9.26748 15.1804C9.10822 15.2259 8.94283 15.2257 8.77133 15.1798Z" fill="white"/>
</svg>
