<svg width="66" height="66" viewBox="0 0 66 66" fill="none" xmlns="http://www.w3.org/2000/svg">
<g clip-path="url(#clip0_702_514)">
<path d="M38.5379 39.498H31.5229V65.9996H38.5379V39.498Z" fill="#1D1D1B"/>
<path d="M64.0591 58.9148V66H52.8575C51.7189 66 50.6269 65.5432 49.8218 64.73C49.0166 63.9168 48.5643 62.8139 48.5643 61.6639V0H55.5793V57.7125C55.5793 58.0324 55.7052 58.3392 55.9291 58.5654C56.1531 58.7916 56.4569 58.9187 56.7736 58.9187L64.0591 58.9148Z" fill="#A72C31"/>
<path d="M38.538 32.4075V19.7492C38.538 19.6261 38.538 19.5049 38.538 19.3837C38.3475 8.64533 29.7954 0 19.2738 0C8.63217 0 0.00384521 8.84926 0.00384521 19.7492C0.00384521 30.5222 8.43027 39.2907 18.9004 39.4946H19.2814H48.5682V32.4075H38.538ZM19.27 32.4075C12.5121 32.4075 7.01507 26.7267 7.01507 19.7434C7.01507 12.7602 12.5121 7.07941 19.27 7.07941C26.0279 7.07941 31.5248 12.766 31.5248 19.7492V32.4075H19.27Z" fill="#1D1D1B"/>
<path d="M66 32.4131H48.5681V39.4983H66V32.4131Z" fill="#1D1D1B"/>
</g>
<defs>
<clipPath id="clip0_702_514">
<rect width="66" height="66" fill="white"/>
</clipPath>
</defs>
</svg>
