<svg width="35" height="45" viewBox="0 0 35 45" fill="none" xmlns="http://www.w3.org/2000/svg">
<path d="M8.51343 23.4574C10.4053 21.5426 12.7702 20.1064 14.6621 19.6277C16.554 19.1489 15.608 19.6277 16.554 21.0638C17.4999 22.5 17.9729 23.9362 20.8107 22.5C23.081 21.3511 25.8558 18.5106 26.9594 17.234" stroke="#323C92" stroke-width="3"/>
<path d="M1.5 3.41489H33.5V43.5H6C3.51472 43.5 1.5 41.4853 1.5 39V3.41489Z" stroke="#323C92" stroke-width="3"/>
<rect x="4.72961" width="2.83784" height="8.61702" rx="1.41892" fill="#323C92"/>
<rect x="12.2972" width="2.83784" height="8.61702" rx="1.41892" fill="#323C92"/>
<rect x="19.8649" width="2.83784" height="8.61702" rx="1.41892" fill="#323C92"/>
<rect x="27.4323" width="2.83784" height="8.61702" rx="1.41892" fill="#323C92"/>
<path d="M1.89172 39.2553C3.88728 37.7591 6.14848 37.3404 7.5674 37.8191C6.29317 39.9916 5.67551 41.6489 7.09443 43.0851" stroke="#323C92" stroke-width="2"/>
</svg>
