<svg width="37" height="37" viewBox="0 0 37 37" fill="none" xmlns="http://www.w3.org/2000/svg">
<path d="M11.1033 37C10.0855 37 9.21451 36.638 8.49033 35.9141C7.76491 35.1889 7.4022 34.3175 7.4022 33.3C7.4022 32.2825 7.76491 31.4111 8.49033 30.6859C9.21451 29.962 10.0855 29.6 11.1033 29.6C12.1211 29.6 12.9921 29.962 13.7163 30.6859C14.4417 31.4111 14.8044 32.2825 14.8044 33.3C14.8044 34.3175 14.4417 35.1889 13.7163 35.9141C12.9921 36.638 12.1211 37 11.1033 37ZM29.6088 37C28.591 37 27.72 36.638 26.9958 35.9141C26.2704 35.1889 25.9077 34.3175 25.9077 33.3C25.9077 32.2825 26.2704 31.4111 26.9958 30.6859C27.72 29.962 28.591 29.6 29.6088 29.6C30.6266 29.6 31.4982 29.962 32.2236 30.6859C32.9478 31.4111 33.3099 32.2825 33.3099 33.3C33.3099 34.3175 32.9478 35.1889 32.2236 35.9141C31.4982 36.638 30.6266 37 29.6088 37ZM11.1033 27.75C9.71539 27.75 8.66675 27.1407 7.95737 25.9222C7.24799 24.7049 7.21715 23.495 7.86484 22.2925L10.3631 17.76L3.7011 3.7H1.80429C1.27996 3.7 0.848169 3.5224 0.508901 3.1672C0.169634 2.81323 0 2.37417 0 1.85C0 1.32583 0.177653 0.88615 0.532959 0.53095C0.887031 0.176983 1.32623 0 1.85055 0H4.8577C5.19696 0 5.52081 0.0925002 5.82924 0.2775C6.13766 0.4625 6.36898 0.724583 6.52319 1.06375L7.77231 3.7H35.0679C35.9007 3.7 36.4713 4.00833 36.7797 4.625C37.0881 5.24167 37.0727 5.88917 36.7334 6.5675L30.164 18.4075C29.8247 19.0242 29.3775 19.5021 28.8223 19.8413C28.2672 20.1804 27.6349 20.35 26.9255 20.35H13.1389L11.1033 24.05H31.5056C32.0299 24.05 32.4617 24.227 32.801 24.5809C33.1403 24.9361 33.3099 25.3758 33.3099 25.9C33.3099 26.4242 33.1323 26.8632 32.777 27.2172C32.4229 27.5724 31.9837 27.75 31.4594 27.75H11.1033Z" fill="#323C92"/>
</svg>
