<svg width="44" height="80" viewBox="0 0 44 80" fill="none" xmlns="http://www.w3.org/2000/svg">
<path d="M21.7825 80C9.75237 80 2.14315e-06 70.2476 1.61117e-06 58.2175L0 21.7825C-5.31979e-07 9.75237 9.75237 5.19802e-07 21.7825 0C33.8127 -5.19802e-07 43.5651 9.75237 43.5651 21.7825V58.2175C43.5651 70.2476 33.8127 80 21.7825 80Z" fill="#323C92"/>
<path d="M42.597 21.6867C42.597 33.1317 33.278 42.4096 21.7826 42.4096C10.2871 42.4096 0.968142 33.1317 0.968142 21.6867C0.968142 10.2418 10.2871 0.963859 21.7826 0.963859C33.278 0.963859 42.597 10.2418 42.597 21.6867Z" fill="white"/>
<path d="M20.0974 16.5487H21.4184V23.7717C21.4184 24.5175 21.2427 25.1833 20.8911 25.7693C20.5431 26.3516 20.0513 26.8115 19.4156 27.1489C18.78 27.4827 18.0342 27.6496 17.1784 27.6496C16.3226 27.6496 15.5768 27.4827 14.9412 27.1489C14.3055 26.8115 13.8119 26.3516 13.4604 25.7693C13.1123 25.1833 12.9383 24.5175 12.9383 23.7717V16.5487H14.2594V23.6652C14.2594 24.1979 14.3765 24.672 14.6109 25.0874C14.8453 25.4994 15.1791 25.8243 15.6123 26.0622C16.0491 26.2966 16.5711 26.4138 17.1784 26.4138C17.7856 26.4138 18.3077 26.2966 18.7444 26.0622C19.1812 25.8243 19.515 25.4994 19.7459 25.0874C19.9802 24.672 20.0974 24.1979 20.0974 23.6652V16.5487Z" fill="#323C92"/>
<path d="M24.5039 27.4578H23.119L27.1247 16.5487H28.4883L32.494 27.4578H31.1091L27.8491 18.2746H27.7639L24.5039 27.4578ZM25.0153 23.1965H30.5977V24.3683H25.0153V23.1965Z" fill="#323C92"/>
<path d="M12.9383 64.0843V53.1752H19.5221V54.3471H14.2594V58.0332H19.1812V59.2051H14.2594V62.9125H19.6074V64.0843H12.9383Z" fill="#7E89EB"/>
<path d="M30.5537 53.1752V64.0843H29.2753L23.3307 55.519H23.2242V64.0843H21.9032V53.1752H23.1816L29.1475 61.7619H29.254V53.1752H30.5537Z" fill="#7E89EB"/>
</svg>
