<svg width="367" height="133" viewBox="0 0 367 133" fill="none" xmlns="http://www.w3.org/2000/svg">
<g filter="url(#filter0_d_460_1574)">
<path d="M54 0C26.3858 0 4 22.3858 4 50C4 77.6142 26.3858 100 54 100H313C316.499 100 319.915 99.6405 323.211 98.9565C326.054 102.539 327.752 107.071 327.752 112C327.752 116.757 326.17 121.145 323.504 124.666C333.312 122.897 340.752 114.317 340.752 104C340.752 100.127 339.703 96.4983 337.874 93.3832C352.889 84.756 363 68.5588 363 50C363 22.3858 340.614 0 313 0H54Z" fill="white"/>
</g>
<path d="M139.364 41.5455L143.207 47.9375H143.344L147.205 41.5455H150.81L145.432 50.2727L150.895 59H147.23L143.344 52.6506H143.207L139.321 59H135.673L141.188 50.2727L135.741 41.5455H139.364ZM152.44 48.4403V45.9091H163.894V48.4403H159.658V59H156.675V48.4403H152.44ZM171.522 59.2557C170.244 59.2557 169.136 58.9744 168.198 58.4119C167.261 57.8494 166.533 57.0625 166.016 56.0511C165.505 55.0398 165.249 53.858 165.249 52.5057C165.249 51.1534 165.505 49.9687 166.016 48.9517C166.533 47.9347 167.261 47.1449 168.198 46.5824C169.136 46.0199 170.244 45.7386 171.522 45.7386C172.8 45.7386 173.908 46.0199 174.846 46.5824C175.783 47.1449 176.508 47.9347 177.019 48.9517C177.536 49.9687 177.795 51.1534 177.795 52.5057C177.795 53.858 177.536 55.0398 177.019 56.0511C176.508 57.0625 175.783 57.8494 174.846 58.4119C173.908 58.9744 172.8 59.2557 171.522 59.2557ZM171.539 56.7841C172.232 56.7841 172.812 56.5937 173.278 56.2131C173.744 55.8267 174.09 55.3097 174.317 54.6619C174.55 54.0142 174.667 53.2926 174.667 52.4972C174.667 51.696 174.55 50.9716 174.317 50.3239C174.09 49.6705 173.744 49.1506 173.278 48.7642C172.812 48.3778 172.232 48.1847 171.539 48.1847C170.829 48.1847 170.238 48.3778 169.766 48.7642C169.3 49.1506 168.951 49.6705 168.718 50.3239C168.491 50.9716 168.377 51.696 168.377 52.4972C168.377 53.2926 168.491 54.0142 168.718 54.6619C168.951 55.3097 169.3 55.8267 169.766 56.2131C170.238 56.5937 170.829 56.7841 171.539 56.7841ZM193.901 55.4119L197.787 45.9091H200.276L194.983 59H192.827L187.653 45.9091H190.116L193.901 55.4119ZM189.341 45.9091V59H186.366V45.9091H189.341ZM198.588 59V45.9091H201.537V59H198.588ZM207.622 54.8239L212.864 45.9091H216.034V59H213.051V50.0767L207.827 59H204.648V45.9091H207.622V54.8239ZM222.151 53.8693V53.6477C222.157 52.6193 222.254 51.8011 222.441 51.1932C222.634 50.5852 222.907 50.0966 223.259 49.7273C223.612 49.3523 224.04 49.0085 224.546 48.696C224.893 48.4801 225.202 48.2443 225.475 47.9886C225.754 47.7273 225.972 47.4375 226.131 47.1193C226.29 46.7955 226.37 46.4347 226.37 46.0369C226.37 45.5881 226.265 45.1989 226.055 44.8693C225.844 44.5398 225.56 44.2841 225.202 44.1023C224.85 43.9205 224.455 43.8295 224.018 43.8295C223.614 43.8295 223.231 43.9176 222.867 44.0938C222.509 44.2642 222.211 44.5256 221.972 44.8778C221.739 45.2244 221.609 45.6648 221.58 46.1989H218.546C218.575 45.1193 218.836 44.2159 219.33 43.4886C219.83 42.7614 220.489 42.2159 221.308 41.8523C222.131 41.4886 223.04 41.3068 224.035 41.3068C225.12 41.3068 226.075 41.4972 226.898 41.8778C227.728 42.2585 228.373 42.8011 228.833 43.5057C229.299 44.2045 229.532 45.0341 229.532 45.9943C229.532 46.642 229.427 47.2216 229.217 47.733C229.012 48.2443 228.719 48.6989 228.339 49.0966C227.958 49.4943 227.506 49.8494 226.984 50.1619C226.523 50.446 226.146 50.7415 225.85 51.0483C225.56 51.3551 225.344 51.7159 225.202 52.1307C225.066 52.5398 224.995 53.0455 224.989 53.6477V53.8693H222.151ZM223.634 59.1875C223.123 59.1875 222.683 59.0057 222.313 58.642C221.944 58.2784 221.759 57.8352 221.759 57.3125C221.759 56.8011 221.944 56.3636 222.313 56C222.683 55.6364 223.123 55.4545 223.634 55.4545C224.14 55.4545 224.577 55.6364 224.947 56C225.322 56.3636 225.509 56.8011 225.509 57.3125C225.509 57.6591 225.421 57.9744 225.245 58.2585C225.075 58.5426 224.847 58.7699 224.563 58.9403C224.285 59.1051 223.975 59.1875 223.634 59.1875Z" fill="#181818"/>
<defs>
<filter id="filter0_d_460_1574" x="0" y="0" width="367" height="132.666" filterUnits="userSpaceOnUse" color-interpolation-filters="sRGB">
<feFlood flood-opacity="0" result="BackgroundImageFix"/>
<feColorMatrix in="SourceAlpha" type="matrix" values="0 0 0 0 0 0 0 0 0 0 0 0 0 0 0 0 0 0 127 0" result="hardAlpha"/>
<feOffset dy="4"/>
<feGaussianBlur stdDeviation="2"/>
<feComposite in2="hardAlpha" operator="out"/>
<feColorMatrix type="matrix" values="0 0 0 0 0 0 0 0 0 0 0 0 0 0 0 0 0 0 0.25 0"/>
<feBlend mode="normal" in2="BackgroundImageFix" result="effect1_dropShadow_460_1574"/>
<feBlend mode="normal" in="SourceGraphic" in2="effect1_dropShadow_460_1574" result="shape"/>
</filter>
</defs>
</svg>
