<svg width="367" height="129" viewBox="0 0 367 129" fill="none" xmlns="http://www.w3.org/2000/svg">
<g filter="url(#filter0_d_460_1575)">
<path fill-rule="evenodd" clip-rule="evenodd" d="M23.1148 31.6768C11.4752 40.8315 4 55.0428 4 71C4 98.6142 26.3858 121 54 121H313C340.614 121 363 98.6142 363 71C363 43.3858 340.614 21 313 21H54C47.8174 21 41.897 22.1221 36.4311 24.1738C34.2618 20.8687 33 16.9146 33 12.6658C33 7.90869 34.5818 3.521 37.248 0C27.4403 1.76892 20 10.3484 20 20.6658C20 24.7037 21.1396 28.4754 23.1148 31.6768Z" fill="white"/>
</g>
<path d="M121.043 76.4688L120.804 83.108H117.881V79H116.372V76.4688H121.043ZM99.1818 61.5455H102.293V76.375H107.679V61.5455H110.773V76.375H116.116V61.5455H119.21V79H99.1818V61.5455ZM129.186 79.2557C127.908 79.2557 126.8 78.9744 125.862 78.4119C124.925 77.8494 124.197 77.0625 123.68 76.0511C123.169 75.0398 122.913 73.858 122.913 72.5057C122.913 71.1534 123.169 69.9687 123.68 68.9517C124.197 67.9347 124.925 67.1449 125.862 66.5824C126.8 66.0199 127.908 65.7386 129.186 65.7386C130.464 65.7386 131.572 66.0199 132.51 66.5824C133.447 67.1449 134.172 67.9347 134.683 68.9517C135.2 69.9687 135.459 71.1534 135.459 72.5057C135.459 73.858 135.2 75.0398 134.683 76.0511C134.172 77.0625 133.447 77.8494 132.51 78.4119C131.572 78.9744 130.464 79.2557 129.186 79.2557ZM129.203 76.7841C129.896 76.7841 130.476 76.5937 130.942 76.2131C131.408 75.8267 131.754 75.3097 131.982 74.6619C132.214 74.0142 132.331 73.2926 132.331 72.4972C132.331 71.696 132.214 70.9716 131.982 70.3239C131.754 69.6705 131.408 69.1506 130.942 68.7642C130.476 68.3778 129.896 68.1847 129.203 68.1847C128.493 68.1847 127.902 68.3778 127.43 68.7642C126.964 69.1506 126.615 69.6705 126.382 70.3239C126.155 70.9716 126.041 71.696 126.041 72.4972C126.041 73.2926 126.155 74.0142 126.382 74.6619C126.615 75.3097 126.964 75.8267 127.43 76.2131C127.902 76.5937 128.493 76.7841 129.203 76.7841ZM144.031 79V65.9091H149.528C151.079 65.9091 152.303 66.2187 153.201 66.8381C154.104 67.4574 154.556 68.321 154.556 69.429C154.556 70.1619 154.3 70.7614 153.789 71.2273C153.283 71.6875 152.593 71.9972 151.718 72.1562C152.406 72.2131 153.008 72.3864 153.525 72.6761C154.048 72.9659 154.457 73.3466 154.752 73.8182C155.048 74.2898 155.195 74.8324 155.195 75.446C155.195 76.1676 155.005 76.7955 154.624 77.3295C154.249 77.858 153.701 78.2699 152.979 78.5653C152.263 78.8551 151.394 79 150.371 79H144.031ZM146.92 76.571H150.371C150.94 76.571 151.386 76.4375 151.71 76.1705C152.033 75.8977 152.195 75.5284 152.195 75.0625C152.195 74.5227 152.033 74.0994 151.71 73.7926C151.386 73.4801 150.94 73.3239 150.371 73.3239H146.92V76.571ZM146.92 71.3295H149.587C150.008 71.3295 150.369 71.2699 150.67 71.1506C150.971 71.0256 151.201 70.8523 151.36 70.6307C151.519 70.4034 151.599 70.1335 151.599 69.821C151.599 69.3722 151.414 69.0199 151.045 68.7642C150.681 68.5085 150.175 68.3807 149.528 68.3807H146.92V71.3295ZM157.026 68.4403V65.9091H168.48V68.4403H164.244V79H161.261V68.4403H157.026ZM170.937 79V65.9091H174.022V79H170.937ZM172.488 64.0511C171.999 64.0511 171.579 63.8892 171.227 63.5653C170.874 63.2358 170.698 62.8409 170.698 62.3807C170.698 61.9148 170.874 61.5199 171.227 61.196C171.579 60.8665 171.999 60.7017 172.488 60.7017C172.982 60.7017 173.403 60.8665 173.749 61.196C174.102 61.5199 174.278 61.9148 174.278 62.3807C174.278 62.8409 174.102 63.2358 173.749 63.5653C173.403 63.8892 172.982 64.0511 172.488 64.0511ZM176.291 79L176.274 76.4602H176.726C177.067 76.4602 177.354 76.3835 177.587 76.2301C177.82 76.0767 178.013 75.821 178.166 75.4631C178.32 75.0994 178.439 74.6108 178.524 73.9972C178.609 73.3835 178.669 72.6193 178.703 71.7045L178.933 65.9091H188.479V79H185.496V68.4403H181.737L181.533 72.6591C181.482 73.75 181.359 74.696 181.166 75.4972C180.979 76.2926 180.712 76.9489 180.365 77.4659C180.024 77.983 179.595 78.3693 179.078 78.625C178.561 78.875 177.95 79 177.246 79H176.291ZM198.497 71.2699V73.8097H191.449V71.2699H198.497ZM193.895 65.9091V79H190.801V65.9091H193.895ZM202.452 79.2557C201.19 79.2557 200.097 78.9688 199.17 78.3949C198.25 77.821 197.537 77.0256 197.031 76.0085C196.526 74.9915 196.273 73.8153 196.273 72.4801C196.273 71.1449 196.526 69.9716 197.031 68.9602C197.537 67.9489 198.25 67.1591 199.17 66.5909C200.097 66.0227 201.19 65.7386 202.452 65.7386C203.707 65.7386 204.795 66.0227 205.716 66.5909C206.642 67.1591 207.358 67.9489 207.864 68.9602C208.375 69.9716 208.631 71.1449 208.631 72.4801C208.631 73.8153 208.375 74.9915 207.864 76.0085C207.358 77.0256 206.642 77.821 205.716 78.3949C204.795 78.9688 203.707 79.2557 202.452 79.2557ZM202.452 76.6989C203.196 76.6989 203.804 76.5114 204.276 76.1364C204.747 75.7614 205.094 75.2557 205.315 74.6193C205.537 73.983 205.648 73.2699 205.648 72.4801C205.648 71.6903 205.537 70.9773 205.315 70.3409C205.094 69.7045 204.747 69.2017 204.276 68.8324C203.804 68.4574 203.196 68.2699 202.452 68.2699C201.702 68.2699 201.088 68.4574 200.611 68.8324C200.139 69.2017 199.793 69.7045 199.571 70.3409C199.349 70.9773 199.239 71.6903 199.239 72.4801C199.239 73.2756 199.349 73.9915 199.571 74.6278C199.793 75.2642 200.139 75.7699 200.611 76.1449C201.088 76.5142 201.702 76.6989 202.452 76.6989ZM217.486 71.5341V73.571H212.159V71.5341H217.486ZM222.233 70.0341L219.318 70.4176C219.159 69.7983 218.864 69.2869 218.432 68.8835C218 68.4744 217.395 68.2699 216.616 68.2699C215.923 68.2699 215.338 68.4432 214.861 68.7898C214.389 69.1364 214.031 69.625 213.787 70.2557C213.543 70.8807 213.42 71.6136 213.42 72.4545C213.42 73.3011 213.54 74.0426 213.778 74.679C214.023 75.3153 214.381 75.8125 214.852 76.1705C215.33 76.5227 215.918 76.6989 216.616 76.6989C217.094 76.6989 217.511 76.6165 217.869 76.4517C218.227 76.2812 218.523 76.0483 218.756 75.7528C218.994 75.4517 219.168 75.1023 219.276 74.7045L222.207 75.071C222.043 75.8949 221.707 76.6222 221.202 77.2528C220.702 77.8778 220.06 78.3693 219.276 78.7273C218.497 79.0795 217.611 79.2557 216.616 79.2557C215.344 79.2557 214.244 78.9659 213.318 78.3864C212.398 77.8068 211.688 77.0057 211.188 75.983C210.693 74.9602 210.446 73.7841 210.446 72.4545C210.446 71.142 210.696 69.983 211.196 68.9773C211.702 67.9659 212.415 67.1733 213.335 66.5994C214.256 66.0256 215.349 65.7386 216.616 65.7386C217.605 65.7386 218.491 65.9176 219.276 66.2756C220.065 66.6278 220.716 67.125 221.227 67.767C221.744 68.4091 222.08 69.1648 222.233 70.0341ZM232.494 75.4119L236.381 65.9091H238.869L233.577 79H231.42L226.247 65.9091H228.71L232.494 75.4119ZM227.935 65.9091V79H224.96V65.9091H227.935ZM237.182 79V65.9091H240.131V79H237.182ZM248.952 79.2557C247.673 79.2557 246.565 78.9744 245.628 78.4119C244.69 77.8494 243.963 77.0625 243.446 76.0511C242.935 75.0398 242.679 73.858 242.679 72.5057C242.679 71.1534 242.935 69.9687 243.446 68.9517C243.963 67.9347 244.69 67.1449 245.628 66.5824C246.565 66.0199 247.673 65.7386 248.952 65.7386C250.23 65.7386 251.338 66.0199 252.276 66.5824C253.213 67.1449 253.938 67.9347 254.449 68.9517C254.966 69.9687 255.224 71.1534 255.224 72.5057C255.224 73.858 254.966 75.0398 254.449 76.0511C253.938 77.0625 253.213 77.8494 252.276 78.4119C251.338 78.9744 250.23 79.2557 248.952 79.2557ZM248.969 76.7841C249.662 76.7841 250.241 76.5937 250.707 76.2131C251.173 75.8267 251.52 75.3097 251.747 74.6619C251.98 74.0142 252.097 73.2926 252.097 72.4972C252.097 71.696 251.98 70.9716 251.747 70.3239C251.52 69.6705 251.173 69.1506 250.707 68.7642C250.241 68.3778 249.662 68.1847 248.969 68.1847C248.259 68.1847 247.668 68.3778 247.196 68.7642C246.73 69.1506 246.381 69.6705 246.148 70.3239C245.92 70.9716 245.807 71.696 245.807 72.4972C245.807 73.2926 245.92 74.0142 246.148 74.6619C246.381 75.3097 246.73 75.8267 247.196 76.2131C247.668 76.5937 248.259 76.7841 248.969 76.7841ZM260.792 73.8693V73.6477C260.798 72.6193 260.894 71.8011 261.082 71.1932C261.275 70.5852 261.548 70.0966 261.9 69.7273C262.252 69.3523 262.681 69.0085 263.187 68.696C263.533 68.4801 263.843 68.2443 264.116 67.9886C264.394 67.7273 264.613 67.4375 264.772 67.1193C264.931 66.7955 265.011 66.4347 265.011 66.0369C265.011 65.5881 264.906 65.1989 264.695 64.8693C264.485 64.5398 264.201 64.2841 263.843 64.1023C263.491 63.9205 263.096 63.8295 262.658 63.8295C262.255 63.8295 261.871 63.9176 261.508 64.0938C261.15 64.2642 260.852 64.5256 260.613 64.8778C260.38 65.2244 260.249 65.6648 260.221 66.1989H257.187C257.215 65.1193 257.477 64.2159 257.971 63.4886C258.471 62.7614 259.13 62.2159 259.948 61.8523C260.772 61.4886 261.681 61.3068 262.675 61.3068C263.761 61.3068 264.715 61.4972 265.539 61.8778C266.369 62.2585 267.013 62.8011 267.474 63.5057C267.94 64.2045 268.173 65.0341 268.173 65.9943C268.173 66.642 268.067 67.2216 267.857 67.733C267.653 68.2443 267.36 68.6989 266.979 69.0966C266.599 69.4943 266.147 69.8494 265.624 70.1619C265.164 70.446 264.786 70.7415 264.491 71.0483C264.201 71.3551 263.985 71.7159 263.843 72.1307C263.707 72.5398 263.636 73.0455 263.63 73.6477V73.8693H260.792ZM262.275 79.1875C261.763 79.1875 261.323 79.0057 260.954 78.642C260.585 78.2784 260.4 77.8352 260.4 77.3125C260.4 76.8011 260.585 76.3636 260.954 76C261.323 75.6364 261.763 75.4545 262.275 75.4545C262.781 75.4545 263.218 75.6364 263.587 76C263.962 76.3636 264.15 76.8011 264.15 77.3125C264.15 77.6591 264.062 77.9744 263.886 78.2585C263.715 78.5426 263.488 78.7699 263.204 78.9403C262.925 79.1051 262.616 79.1875 262.275 79.1875Z" fill="#181818"/>
<defs>
<filter id="filter0_d_460_1575" x="0" y="0" width="367" height="129" filterUnits="userSpaceOnUse" color-interpolation-filters="sRGB">
<feFlood flood-opacity="0" result="BackgroundImageFix"/>
<feColorMatrix in="SourceAlpha" type="matrix" values="0 0 0 0 0 0 0 0 0 0 0 0 0 0 0 0 0 0 127 0" result="hardAlpha"/>
<feOffset dy="4"/>
<feGaussianBlur stdDeviation="2"/>
<feComposite in2="hardAlpha" operator="out"/>
<feColorMatrix type="matrix" values="0 0 0 0 0 0 0 0 0 0 0 0 0 0 0 0 0 0 0.25 0"/>
<feBlend mode="normal" in2="BackgroundImageFix" result="effect1_dropShadow_460_1575"/>
<feBlend mode="normal" in="SourceGraphic" in2="effect1_dropShadow_460_1575" result="shape"/>
</filter>
</defs>
</svg>
