<svg width="367" height="129" viewBox="0 0 367 129" fill="none" xmlns="http://www.w3.org/2000/svg">
<g filter="url(#filter0_d_389_3)">
<path fill-rule="evenodd" clip-rule="evenodd" d="M23.1148 31.6768C11.4752 40.8315 4 55.0428 4 71C4 98.6142 26.3858 121 54 121H313C340.614 121 363 98.6142 363 71C363 43.3858 340.614 21 313 21H54C47.8174 21 41.897 22.1221 36.4311 24.1738C34.2618 20.8687 33 16.9146 33 12.6658C33 7.90869 34.5818 3.521 37.248 0C27.4403 1.76892 20 10.3484 20 20.6658C20 24.7037 21.1396 28.4754 23.1148 31.6768Z" fill="white"/>
</g>
<defs>
<filter id="filter0_d_389_3" x="0" y="0" width="367" height="129" filterUnits="userSpaceOnUse" color-interpolation-filters="sRGB">
<feFlood flood-opacity="0" result="BackgroundImageFix"/>
<feColorMatrix in="SourceAlpha" type="matrix" values="0 0 0 0 0 0 0 0 0 0 0 0 0 0 0 0 0 0 127 0" result="hardAlpha"/>
<feOffset dy="4"/>
<feGaussianBlur stdDeviation="2"/>
<feComposite in2="hardAlpha" operator="out"/>
<feColorMatrix type="matrix" values="0 0 0 0 0 0 0 0 0 0 0 0 0 0 0 0 0 0 0.25 0"/>
<feBlend mode="normal" in2="BackgroundImageFix" result="effect1_dropShadow_389_3"/>
<feBlend mode="normal" in="SourceGraphic" in2="effect1_dropShadow_389_3" result="shape"/>
</filter>
</defs>
</svg>
