<svg width="367" height="133" viewBox="0 0 367 133" fill="none" xmlns="http://www.w3.org/2000/svg">
<g filter="url(#filter0_d_385_310)">
<path fill-rule="evenodd" clip-rule="evenodd" d="M54 0C26.3858 0 4 22.3858 4 50C4 77.6142 26.3858 100 54 100H313C316.499 100 319.915 99.6405 323.211 98.9565C326.054 102.539 327.752 107.071 327.752 112C327.752 116.757 326.17 121.145 323.504 124.666C333.312 122.897 340.752 114.317 340.752 104C340.752 100.127 339.703 96.4983 337.874 93.3832C352.889 84.756 363 68.5588 363 50C363 22.3858 340.614 0 313 0H54Z" fill="white"/>
</g>
<defs>
<filter id="filter0_d_385_310" x="0" y="0" width="367" height="132.666" filterUnits="userSpaceOnUse" color-interpolation-filters="sRGB">
<feFlood flood-opacity="0" result="BackgroundImageFix"/>
<feColorMatrix in="SourceAlpha" type="matrix" values="0 0 0 0 0 0 0 0 0 0 0 0 0 0 0 0 0 0 127 0" result="hardAlpha"/>
<feOffset dy="4"/>
<feGaussianBlur stdDeviation="2"/>
<feComposite in2="hardAlpha" operator="out"/>
<feColorMatrix type="matrix" values="0 0 0 0 0 0 0 0 0 0 0 0 0 0 0 0 0 0 0.25 0"/>
<feBlend mode="normal" in2="BackgroundImageFix" result="effect1_dropShadow_385_310"/>
<feBlend mode="normal" in="SourceGraphic" in2="effect1_dropShadow_385_310" result="shape"/>
</filter>
</defs>
</svg>
