<svg width="46" height="47" viewBox="0 0 46 47" fill="none" xmlns="http://www.w3.org/2000/svg">
<path d="M23.9148 6.93082C24.5321 5.75574 26.1595 5.71113 26.8704 6.78564L39.8802 26.4501C40.5911 27.5246 39.9136 29.0049 38.5906 29.1135C36.8134 29.2606 31.5741 29.7295 28.6557 30.3397C26.8408 30.71 25.0706 31.2732 23.3752 32.0197L25.4226 37.0406C25.4908 37.2078 25.5255 37.3869 25.5245 37.5675C25.5235 37.7482 25.487 37.9269 25.4169 38.0934C25.3469 38.2599 25.2447 38.411 25.1163 38.538C24.9879 38.665 24.8357 38.7655 24.6685 38.8338C24.5012 38.902 24.3221 38.9366 24.1415 38.9356C23.9609 38.9346 23.7822 38.8981 23.6157 38.828C23.4492 38.758 23.2981 38.6559 23.1711 38.5275C23.044 38.399 22.9435 38.2469 22.8753 38.0796L20.9088 33.2557C20.5846 33.437 20.2629 33.6229 19.944 33.8133C18.0496 34.9446 15.519 34.4838 14.2512 32.5676L11.2165 27.9806C9.94875 26.0644 10.5144 23.5551 12.2965 22.2541C12.6907 21.9653 13.0742 21.6753 13.4455 21.3818L20.3556 31.8264L20.3946 31.8006C20.3799 31.5597 20.4289 31.3191 20.5366 31.1032C20.6444 30.8872 20.807 30.7034 21.0083 30.5702C21.2096 30.437 21.4424 30.3592 21.6833 30.3445C21.9242 30.3298 22.1647 30.3788 22.3807 30.4865L22.6491 30.309L15.5387 19.5617C16.7881 18.3547 17.9139 17.0261 18.8995 15.5956C20.6036 13.1475 23.0836 8.50786 23.9148 6.93082Z" fill="url(#paint0_linear_507_17)"/>
<defs>
<linearGradient id="paint0_linear_507_17" x1="15.5974" y1="12.1743" x2="30.6417" y2="34.9139" gradientUnits="userSpaceOnUse">
<stop stop-color="#7E89EB"/>
<stop offset="1" stop-color="#323C92"/>
</linearGradient>
</defs>
</svg>
