<svg width="21" height="22" viewBox="0 0 21 22" fill="none" xmlns="http://www.w3.org/2000/svg">
<path fill-rule="evenodd" clip-rule="evenodd" d="M13.6291 12.838C14.6483 11.5411 15.2563 9.9056 15.2563 8.12814C15.2563 3.91524 11.841 0.5 7.62814 0.5C3.41524 0.5 0 3.91524 0 8.12814C0 12.341 3.41524 15.7563 7.62814 15.7563C9.40559 15.7563 11.0411 15.1483 12.338 14.1291C12.3866 14.269 12.4668 14.4003 12.5786 14.5121L18.8498 20.7833C19.2457 21.1792 19.8875 21.1792 20.2833 20.7833C20.6791 20.3875 20.6791 19.7457 20.2833 19.3498L14.0121 13.0786C13.9003 12.9668 13.769 12.8866 13.6291 12.838ZM7.62814 13.7563C4.51978 13.7563 1.99994 11.2365 1.99994 8.12814C1.99994 5.01977 4.51978 2.49994 7.62814 2.49994C10.7365 2.49994 13.2563 5.01977 13.2563 8.12814C13.2563 11.2365 10.7365 13.7563 7.62814 13.7563Z" fill="#BABABA"/>
</svg>
