<svg width="78" height="78" viewBox="0 0 78 78" fill="none" xmlns="http://www.w3.org/2000/svg">
<path d="M78 39C78 60.5391 60.5391 78 39 78C17.4609 78 0 60.5391 0 39C0 17.4609 17.4609 0 39 0C60.5391 0 78 17.4609 78 39Z" fill="url(#paint0_linear_446_847)"/>
<path d="M50.4859 27.4013C49.0379 26.5712 47.1841 27.0679 46.3451 28.5107L33.7368 50.1954C36.6326 51.8556 40.3403 50.8621 42.0182 47.9764L51.5886 31.5167C52.4275 30.0739 51.9338 28.2314 50.4859 27.4013Z" fill="white"/>
<path d="M26.4072 42.5259C25.5716 43.9631 26.0634 45.7984 27.5056 46.6252L32.864 49.6971L33.5812 48.4636C34.8563 46.2705 34.1059 43.4699 31.9051 42.2082L30.5316 41.4208C29.0894 40.594 27.2428 41.0888 26.4072 42.5259Z" fill="white"/>
<defs>
<linearGradient id="paint0_linear_446_847" x1="39" y1="0" x2="39" y2="78" gradientUnits="userSpaceOnUse">
<stop stop-color="#A2DB00"/>
<stop offset="1" stop-color="#64B300"/>
</linearGradient>
</defs>
</svg>
